<mxfile host="app.diagrams.net" modified="2023-11-04T10:23:29.216Z" agent="Mozilla/5.0 (X11; Linux x86_64) AppleWebKit/537.36 (KHTML, like Gecko) Chrome/114.0.0.0 YaBrowser/23.7.1.1148 (beta) Yowser/2.5 Safari/537.36" etag="Fwh-x_0Wm8XlL6Hf9vs9" version="22.0.8" type="device">
  <diagram name="Страница — 1" id="BcLvG1AJEKQ1QScLnDj6">
    <mxGraphModel dx="3551" dy="391" grid="1" gridSize="10" guides="1" tooltips="1" connect="1" arrows="1" fold="1" page="1" pageScale="1" pageWidth="827" pageHeight="1169" math="0" shadow="0">
      <root>
        <mxCell id="0" />
        <mxCell id="1" parent="0" />
        <mxCell id="W2sGRoZuZfipk6Y31OMA-1" style="edgeStyle=orthogonalEdgeStyle;rounded=0;orthogonalLoop=1;jettySize=auto;html=1;exitX=0.5;exitY=1;exitDx=0;exitDy=0;entryX=0.5;entryY=0;entryDx=0;entryDy=0;curved=1;" edge="1" parent="1" source="W2sGRoZuZfipk6Y31OMA-3" target="W2sGRoZuZfipk6Y31OMA-45">
          <mxGeometry relative="1" as="geometry" />
        </mxCell>
        <mxCell id="W2sGRoZuZfipk6Y31OMA-2" style="edgeStyle=orthogonalEdgeStyle;rounded=0;orthogonalLoop=1;jettySize=auto;html=1;exitX=0.5;exitY=1;exitDx=0;exitDy=0;curved=1;" edge="1" parent="1" source="W2sGRoZuZfipk6Y31OMA-3" target="W2sGRoZuZfipk6Y31OMA-48">
          <mxGeometry relative="1" as="geometry" />
        </mxCell>
        <mxCell id="W2sGRoZuZfipk6Y31OMA-3" value="ядро" style="ellipse;whiteSpace=wrap;html=1;" vertex="1" parent="1">
          <mxGeometry x="-550" y="1700" width="300" height="170" as="geometry" />
        </mxCell>
        <mxCell id="W2sGRoZuZfipk6Y31OMA-4" style="rounded=0;orthogonalLoop=1;jettySize=auto;html=1;exitX=0.5;exitY=1;exitDx=0;exitDy=0;entryX=0.5;entryY=0;entryDx=0;entryDy=0;" edge="1" parent="1" source="W2sGRoZuZfipk6Y31OMA-5" target="W2sGRoZuZfipk6Y31OMA-24">
          <mxGeometry relative="1" as="geometry" />
        </mxCell>
        <mxCell id="W2sGRoZuZfipk6Y31OMA-5" value="конвертер" style="ellipse;whiteSpace=wrap;html=1;" vertex="1" parent="1">
          <mxGeometry x="-695" y="1323" width="120" height="80" as="geometry" />
        </mxCell>
        <mxCell id="W2sGRoZuZfipk6Y31OMA-6" value="" style="endArrow=classic;html=1;rounded=0;entryX=0.5;entryY=0;entryDx=0;entryDy=0;" edge="1" parent="1" target="W2sGRoZuZfipk6Y31OMA-5">
          <mxGeometry width="50" height="50" relative="1" as="geometry">
            <mxPoint x="-635" y="1240" as="sourcePoint" />
            <mxPoint x="-665" y="1550" as="targetPoint" />
          </mxGeometry>
        </mxCell>
        <mxCell id="W2sGRoZuZfipk6Y31OMA-7" value="фотогрфия команты" style="edgeLabel;html=1;align=center;verticalAlign=middle;resizable=0;points=[];" vertex="1" connectable="0" parent="W2sGRoZuZfipk6Y31OMA-6">
          <mxGeometry x="-0.2751" y="3" relative="1" as="geometry">
            <mxPoint y="7" as="offset" />
          </mxGeometry>
        </mxCell>
        <mxCell id="W2sGRoZuZfipk6Y31OMA-8" value="" style="endArrow=classic;html=1;rounded=0;entryX=0.5;entryY=0;entryDx=0;entryDy=0;exitX=0.5;exitY=1;exitDx=0;exitDy=0;startArrow=none;startFill=0;edgeStyle=orthogonalEdgeStyle;curved=1;" edge="1" parent="1" source="W2sGRoZuZfipk6Y31OMA-24" target="W2sGRoZuZfipk6Y31OMA-3">
          <mxGeometry width="50" height="50" relative="1" as="geometry">
            <mxPoint x="-1110" y="1740" as="sourcePoint" />
            <mxPoint x="-912" y="1698" as="targetPoint" />
          </mxGeometry>
        </mxCell>
        <mxCell id="W2sGRoZuZfipk6Y31OMA-9" style="edgeStyle=orthogonalEdgeStyle;rounded=0;orthogonalLoop=1;jettySize=auto;html=1;exitX=0.5;exitY=1;exitDx=0;exitDy=0;entryX=0.5;entryY=0;entryDx=0;entryDy=0;" edge="1" parent="1" source="W2sGRoZuZfipk6Y31OMA-10" target="W2sGRoZuZfipk6Y31OMA-37">
          <mxGeometry relative="1" as="geometry" />
        </mxCell>
        <mxCell id="W2sGRoZuZfipk6Y31OMA-10" value="конвертер" style="ellipse;whiteSpace=wrap;html=1;" vertex="1" parent="1">
          <mxGeometry x="-460" y="1323" width="120" height="80" as="geometry" />
        </mxCell>
        <mxCell id="W2sGRoZuZfipk6Y31OMA-11" style="edgeStyle=orthogonalEdgeStyle;rounded=0;orthogonalLoop=1;jettySize=auto;html=1;exitX=0.5;exitY=1;exitDx=0;exitDy=0;entryX=0.5;entryY=0;entryDx=0;entryDy=0;curved=1;" edge="1" parent="1" source="W2sGRoZuZfipk6Y31OMA-12" target="W2sGRoZuZfipk6Y31OMA-41">
          <mxGeometry relative="1" as="geometry" />
        </mxCell>
        <mxCell id="W2sGRoZuZfipk6Y31OMA-12" value="конвертер" style="ellipse;whiteSpace=wrap;html=1;" vertex="1" parent="1">
          <mxGeometry x="-230" y="1323" width="120" height="80" as="geometry" />
        </mxCell>
        <mxCell id="W2sGRoZuZfipk6Y31OMA-13" value="" style="endArrow=classic;html=1;rounded=0;entryX=0.5;entryY=0;entryDx=0;entryDy=0;startArrow=none;startFill=0;" edge="1" parent="1" target="W2sGRoZuZfipk6Y31OMA-12">
          <mxGeometry width="50" height="50" relative="1" as="geometry">
            <mxPoint x="-170" y="1240" as="sourcePoint" />
            <mxPoint x="-802" y="1768" as="targetPoint" />
          </mxGeometry>
        </mxCell>
        <mxCell id="W2sGRoZuZfipk6Y31OMA-14" value="энкодеры" style="edgeLabel;html=1;align=center;verticalAlign=middle;resizable=0;points=[];" vertex="1" connectable="0" parent="W2sGRoZuZfipk6Y31OMA-13">
          <mxGeometry x="-0.2751" y="3" relative="1" as="geometry">
            <mxPoint x="-3" y="10" as="offset" />
          </mxGeometry>
        </mxCell>
        <mxCell id="W2sGRoZuZfipk6Y31OMA-15" value="" style="endArrow=none;html=1;rounded=0;entryX=0.5;entryY=1;entryDx=0;entryDy=0;startArrow=classic;startFill=1;endFill=0;" edge="1" parent="1" target="W2sGRoZuZfipk6Y31OMA-21">
          <mxGeometry width="50" height="50" relative="1" as="geometry">
            <mxPoint x="-285" y="2260" as="sourcePoint" />
            <mxPoint x="-950" y="2120" as="targetPoint" />
          </mxGeometry>
        </mxCell>
        <mxCell id="W2sGRoZuZfipk6Y31OMA-16" value="приводы" style="edgeLabel;html=1;align=center;verticalAlign=middle;resizable=0;points=[];" vertex="1" connectable="0" parent="W2sGRoZuZfipk6Y31OMA-15">
          <mxGeometry x="-0.2751" y="3" relative="1" as="geometry">
            <mxPoint x="3" y="-11" as="offset" />
          </mxGeometry>
        </mxCell>
        <mxCell id="W2sGRoZuZfipk6Y31OMA-17" value="" style="endArrow=classic;html=1;rounded=0;entryX=0.5;entryY=0;entryDx=0;entryDy=0;startArrow=none;startFill=0;" edge="1" parent="1" target="W2sGRoZuZfipk6Y31OMA-10">
          <mxGeometry width="50" height="50" relative="1" as="geometry">
            <mxPoint x="-400" y="1240" as="sourcePoint" />
            <mxPoint x="-772" y="1602" as="targetPoint" />
          </mxGeometry>
        </mxCell>
        <mxCell id="W2sGRoZuZfipk6Y31OMA-18" value="микрофоны" style="edgeLabel;html=1;align=center;verticalAlign=middle;resizable=0;points=[];" vertex="1" connectable="0" parent="W2sGRoZuZfipk6Y31OMA-17">
          <mxGeometry x="-0.2751" y="3" relative="1" as="geometry">
            <mxPoint x="-3" y="14" as="offset" />
          </mxGeometry>
        </mxCell>
        <mxCell id="W2sGRoZuZfipk6Y31OMA-19" value="" style="endArrow=none;html=1;rounded=0;entryX=0.5;entryY=1;entryDx=0;entryDy=0;startArrow=classic;startFill=1;endFill=0;" edge="1" parent="1" target="W2sGRoZuZfipk6Y31OMA-22">
          <mxGeometry width="50" height="50" relative="1" as="geometry">
            <mxPoint x="-530" y="2270" as="sourcePoint" />
            <mxPoint x="-992" y="1964" as="targetPoint" />
          </mxGeometry>
        </mxCell>
        <mxCell id="W2sGRoZuZfipk6Y31OMA-20" value="динамики" style="edgeLabel;html=1;align=center;verticalAlign=middle;resizable=0;points=[];" vertex="1" connectable="0" parent="W2sGRoZuZfipk6Y31OMA-19">
          <mxGeometry x="-0.2751" y="3" relative="1" as="geometry">
            <mxPoint x="3" y="-11" as="offset" />
          </mxGeometry>
        </mxCell>
        <mxCell id="W2sGRoZuZfipk6Y31OMA-21" value="конвертер" style="ellipse;whiteSpace=wrap;html=1;" vertex="1" parent="1">
          <mxGeometry x="-345" y="2110" width="120" height="80" as="geometry" />
        </mxCell>
        <mxCell id="W2sGRoZuZfipk6Y31OMA-22" value="конвертер" style="ellipse;whiteSpace=wrap;html=1;" vertex="1" parent="1">
          <mxGeometry x="-590" y="2110" width="120" height="80" as="geometry" />
        </mxCell>
        <mxCell id="W2sGRoZuZfipk6Y31OMA-23" value="" style="group" vertex="1" connectable="0" parent="1">
          <mxGeometry x="-770" y="1470" width="270" height="160" as="geometry" />
        </mxCell>
        <mxCell id="W2sGRoZuZfipk6Y31OMA-24" value="" style="ellipse;whiteSpace=wrap;html=1;" vertex="1" parent="W2sGRoZuZfipk6Y31OMA-23">
          <mxGeometry width="270" height="160" as="geometry" />
        </mxCell>
        <mxCell id="W2sGRoZuZfipk6Y31OMA-25" value="ограниченное&lt;br&gt;пространство" style="ellipse;whiteSpace=wrap;html=1;" vertex="1" parent="W2sGRoZuZfipk6Y31OMA-23">
          <mxGeometry x="80" y="19" width="100" height="50" as="geometry" />
        </mxCell>
        <mxCell id="W2sGRoZuZfipk6Y31OMA-26" value="нахожусь" style="ellipse;whiteSpace=wrap;html=1;" vertex="1" parent="W2sGRoZuZfipk6Y31OMA-23">
          <mxGeometry x="40.75" y="90" width="70" height="30" as="geometry" />
        </mxCell>
        <mxCell id="W2sGRoZuZfipk6Y31OMA-27" value="в" style="ellipse;whiteSpace=wrap;html=1;" vertex="1" parent="W2sGRoZuZfipk6Y31OMA-23">
          <mxGeometry x="130.75" y="90" width="28.5" height="30" as="geometry" />
        </mxCell>
        <mxCell id="W2sGRoZuZfipk6Y31OMA-28" style="edgeStyle=orthogonalEdgeStyle;rounded=0;orthogonalLoop=1;jettySize=auto;html=1;exitX=1;exitY=0.5;exitDx=0;exitDy=0;entryX=0;entryY=0.5;entryDx=0;entryDy=0;" edge="1" parent="W2sGRoZuZfipk6Y31OMA-23" source="W2sGRoZuZfipk6Y31OMA-26" target="W2sGRoZuZfipk6Y31OMA-27">
          <mxGeometry relative="1" as="geometry" />
        </mxCell>
        <mxCell id="W2sGRoZuZfipk6Y31OMA-29" value="центр" style="ellipse;whiteSpace=wrap;html=1;" vertex="1" parent="W2sGRoZuZfipk6Y31OMA-23">
          <mxGeometry x="180.75" y="90" width="38.5" height="30" as="geometry" />
        </mxCell>
        <mxCell id="W2sGRoZuZfipk6Y31OMA-30" style="edgeStyle=orthogonalEdgeStyle;rounded=0;orthogonalLoop=1;jettySize=auto;html=1;exitX=1;exitY=0.5;exitDx=0;exitDy=0;entryX=0;entryY=0.5;entryDx=0;entryDy=0;" edge="1" parent="W2sGRoZuZfipk6Y31OMA-23" source="W2sGRoZuZfipk6Y31OMA-27" target="W2sGRoZuZfipk6Y31OMA-29">
          <mxGeometry relative="1" as="geometry" />
        </mxCell>
        <mxCell id="W2sGRoZuZfipk6Y31OMA-31" style="edgeStyle=orthogonalEdgeStyle;rounded=0;orthogonalLoop=1;jettySize=auto;html=1;exitX=1;exitY=0.5;exitDx=0;exitDy=0;entryX=0.5;entryY=0;entryDx=0;entryDy=0;curved=1;" edge="1" parent="1" source="W2sGRoZuZfipk6Y31OMA-32" target="W2sGRoZuZfipk6Y31OMA-33">
          <mxGeometry relative="1" as="geometry" />
        </mxCell>
        <mxCell id="W2sGRoZuZfipk6Y31OMA-32" value="продвинуться" style="ellipse;whiteSpace=wrap;html=1;" vertex="1" parent="1">
          <mxGeometry x="-470" y="1730" width="110" height="40" as="geometry" />
        </mxCell>
        <mxCell id="W2sGRoZuZfipk6Y31OMA-33" value="дальше" style="ellipse;whiteSpace=wrap;html=1;" vertex="1" parent="1">
          <mxGeometry x="-350" y="1780" width="80" height="30" as="geometry" />
        </mxCell>
        <mxCell id="W2sGRoZuZfipk6Y31OMA-34" style="edgeStyle=orthogonalEdgeStyle;rounded=0;orthogonalLoop=1;jettySize=auto;html=1;exitX=0.5;exitY=0;exitDx=0;exitDy=0;entryX=0;entryY=0.5;entryDx=0;entryDy=0;curved=1;" edge="1" parent="1" source="W2sGRoZuZfipk6Y31OMA-35" target="W2sGRoZuZfipk6Y31OMA-32">
          <mxGeometry relative="1" as="geometry">
            <Array as="points">
              <mxPoint x="-490" y="1750" />
            </Array>
          </mxGeometry>
        </mxCell>
        <mxCell id="W2sGRoZuZfipk6Y31OMA-35" value="цель" style="ellipse;whiteSpace=wrap;html=1;" vertex="1" parent="1">
          <mxGeometry x="-520" y="1780" width="60" height="30" as="geometry" />
        </mxCell>
        <mxCell id="W2sGRoZuZfipk6Y31OMA-36" value="" style="group" vertex="1" connectable="0" parent="1">
          <mxGeometry x="-460" y="1510" width="120" height="80" as="geometry" />
        </mxCell>
        <mxCell id="W2sGRoZuZfipk6Y31OMA-37" value="" style="ellipse;whiteSpace=wrap;html=1;" vertex="1" parent="W2sGRoZuZfipk6Y31OMA-36">
          <mxGeometry width="120" height="80" as="geometry" />
        </mxCell>
        <mxCell id="W2sGRoZuZfipk6Y31OMA-38" value="молчание" style="ellipse;whiteSpace=wrap;html=1;" vertex="1" parent="W2sGRoZuZfipk6Y31OMA-36">
          <mxGeometry x="23.5" y="25" width="80" height="30" as="geometry" />
        </mxCell>
        <mxCell id="W2sGRoZuZfipk6Y31OMA-39" style="edgeStyle=orthogonalEdgeStyle;rounded=0;orthogonalLoop=1;jettySize=auto;html=1;exitX=0.5;exitY=1;exitDx=0;exitDy=0;entryX=0.5;entryY=0;entryDx=0;entryDy=0;" edge="1" parent="1" source="W2sGRoZuZfipk6Y31OMA-37" target="W2sGRoZuZfipk6Y31OMA-3">
          <mxGeometry relative="1" as="geometry" />
        </mxCell>
        <mxCell id="W2sGRoZuZfipk6Y31OMA-40" value="" style="group" vertex="1" connectable="0" parent="1">
          <mxGeometry x="-230" y="1510" width="120" height="80" as="geometry" />
        </mxCell>
        <mxCell id="W2sGRoZuZfipk6Y31OMA-41" value="" style="ellipse;whiteSpace=wrap;html=1;" vertex="1" parent="W2sGRoZuZfipk6Y31OMA-40">
          <mxGeometry width="120" height="80" as="geometry" />
        </mxCell>
        <mxCell id="W2sGRoZuZfipk6Y31OMA-42" value="стою" style="ellipse;whiteSpace=wrap;html=1;" vertex="1" parent="W2sGRoZuZfipk6Y31OMA-40">
          <mxGeometry x="30" y="15" width="60" height="50" as="geometry" />
        </mxCell>
        <mxCell id="W2sGRoZuZfipk6Y31OMA-43" style="edgeStyle=orthogonalEdgeStyle;rounded=0;orthogonalLoop=1;jettySize=auto;html=1;exitX=0.5;exitY=1;exitDx=0;exitDy=0;entryX=0.5;entryY=0;entryDx=0;entryDy=0;curved=1;" edge="1" parent="1" source="W2sGRoZuZfipk6Y31OMA-41" target="W2sGRoZuZfipk6Y31OMA-3">
          <mxGeometry relative="1" as="geometry">
            <Array as="points">
              <mxPoint x="-170" y="1670" />
              <mxPoint x="-400" y="1670" />
            </Array>
          </mxGeometry>
        </mxCell>
        <mxCell id="W2sGRoZuZfipk6Y31OMA-44" style="edgeStyle=orthogonalEdgeStyle;rounded=0;orthogonalLoop=1;jettySize=auto;html=1;exitX=0.5;exitY=1;exitDx=0;exitDy=0;entryX=0.5;entryY=0;entryDx=0;entryDy=0;curved=1;" edge="1" parent="1" source="W2sGRoZuZfipk6Y31OMA-45" target="W2sGRoZuZfipk6Y31OMA-22">
          <mxGeometry relative="1" as="geometry" />
        </mxCell>
        <mxCell id="W2sGRoZuZfipk6Y31OMA-45" value="" style="ellipse;whiteSpace=wrap;html=1;" vertex="1" parent="1">
          <mxGeometry x="-590" y="1980" width="120" height="80" as="geometry" />
        </mxCell>
        <mxCell id="W2sGRoZuZfipk6Y31OMA-46" value="молчу" style="ellipse;whiteSpace=wrap;html=1;" vertex="1" parent="1">
          <mxGeometry x="-555" y="2000" width="50" height="40" as="geometry" />
        </mxCell>
        <mxCell id="W2sGRoZuZfipk6Y31OMA-47" value="" style="group" vertex="1" connectable="0" parent="1">
          <mxGeometry x="-390" y="1980" width="210" height="80" as="geometry" />
        </mxCell>
        <mxCell id="W2sGRoZuZfipk6Y31OMA-48" value="" style="ellipse;whiteSpace=wrap;html=1;" vertex="1" parent="W2sGRoZuZfipk6Y31OMA-47">
          <mxGeometry width="210" height="80" as="geometry" />
        </mxCell>
        <mxCell id="W2sGRoZuZfipk6Y31OMA-49" value="шаг" style="ellipse;whiteSpace=wrap;html=1;" vertex="1" parent="W2sGRoZuZfipk6Y31OMA-47">
          <mxGeometry x="35" y="15" width="50" height="50" as="geometry" />
        </mxCell>
        <mxCell id="W2sGRoZuZfipk6Y31OMA-50" value="вперед" style="ellipse;whiteSpace=wrap;html=1;" vertex="1" parent="W2sGRoZuZfipk6Y31OMA-47">
          <mxGeometry x="115" y="15" width="50" height="50" as="geometry" />
        </mxCell>
        <mxCell id="W2sGRoZuZfipk6Y31OMA-51" style="edgeStyle=orthogonalEdgeStyle;rounded=0;orthogonalLoop=1;jettySize=auto;html=1;exitX=1;exitY=0.5;exitDx=0;exitDy=0;entryX=0;entryY=0.5;entryDx=0;entryDy=0;" edge="1" parent="W2sGRoZuZfipk6Y31OMA-47" source="W2sGRoZuZfipk6Y31OMA-49" target="W2sGRoZuZfipk6Y31OMA-50">
          <mxGeometry relative="1" as="geometry" />
        </mxCell>
        <mxCell id="W2sGRoZuZfipk6Y31OMA-52" style="edgeStyle=orthogonalEdgeStyle;rounded=0;orthogonalLoop=1;jettySize=auto;html=1;exitX=0.5;exitY=1;exitDx=0;exitDy=0;entryX=0.5;entryY=0;entryDx=0;entryDy=0;curved=1;" edge="1" parent="1" source="W2sGRoZuZfipk6Y31OMA-48" target="W2sGRoZuZfipk6Y31OMA-21">
          <mxGeometry relative="1" as="geometry" />
        </mxCell>
        <mxCell id="W2sGRoZuZfipk6Y31OMA-53" value="привод_1 : 30, привод_2 : 43, привод_3 : 78 ..." style="text;html=1;align=center;verticalAlign=middle;resizable=0;points=[];autosize=1;strokeColor=none;fillColor=none;" vertex="1" parent="1">
          <mxGeometry x="-420" y="2280" width="280" height="30" as="geometry" />
        </mxCell>
        <mxCell id="W2sGRoZuZfipk6Y31OMA-54" value="генерация звука" style="text;html=1;align=center;verticalAlign=middle;resizable=0;points=[];autosize=1;strokeColor=none;fillColor=none;" vertex="1" parent="1">
          <mxGeometry x="-585" y="2280" width="110" height="30" as="geometry" />
        </mxCell>
        <mxCell id="W2sGRoZuZfipk6Y31OMA-55" value="image.jpeg" style="text;html=1;strokeColor=none;fillColor=none;align=center;verticalAlign=middle;whiteSpace=wrap;rounded=0;" vertex="1" parent="1">
          <mxGeometry x="-665" y="1190" width="60" height="30" as="geometry" />
        </mxCell>
        <mxCell id="W2sGRoZuZfipk6Y31OMA-56" value="file.wav" style="text;html=1;strokeColor=none;fillColor=none;align=center;verticalAlign=middle;whiteSpace=wrap;rounded=0;" vertex="1" parent="1">
          <mxGeometry x="-430" y="1190" width="60" height="30" as="geometry" />
        </mxCell>
        <mxCell id="W2sGRoZuZfipk6Y31OMA-57" value="привод_1 : 10, привод_2 : 42, привод_3 : 90 ..." style="text;html=1;align=center;verticalAlign=middle;resizable=0;points=[];autosize=1;strokeColor=none;fillColor=none;" vertex="1" parent="1">
          <mxGeometry x="-310" y="1190" width="280" height="30" as="geometry" />
        </mxCell>
      </root>
    </mxGraphModel>
  </diagram>
</mxfile>
